<?xml version="1.0" encoding="UTF-8"?>
<svg version="1.1" viewBox="0 0 1024 1024" width="256" height="256" xmlns="http://www.w3.org/2000/svg">
<path transform="translate(481)" d="m0 0h62l4 2 26 6 20 7 25 12 19 12 16 13 10 9 11 11 9 11 11 15 10 17 8 16 8 21 6 22 3 19 2 30-1 17-4 26-5 19-7 19-7 16-9 16-12 17-9 11-11 12-10 9 4 3 16 7 19 10 17 10 15 10 14 10 13 11 11 9 7 6v2l4 2 12 12 7 8 9 10 15 20 9 13 10 16 9 16 13 26 11 29 4 12v4l-29 9-46 13-3-1-9-25-9-20-12-23-14-21-10-13-9-10-7-8-15-15-11-9-10-8-16-11-15-9-23-12-19-8-24-8-26-6-20-3-29-2h-12l-28 2-20 3-25 6-22 7-24 10-19 10-18 11-18 13-14 12-8 7-14 14-1 2h-2l-2 4-11 13-11 15-7 11-12 21-10 22-9 25-2 6-6-1-70-20-2-1 2-9 8-23 12-28 12-23 12-19 8-12 12-16 16-20h2l2-4 24-24 11-9 12-10 17-12 22-14 24-13 17-8v-4l-4-2-13-13-18-22-12-19-8-15-10-25-6-22-4-24-1-12v-18l2-22 4-22 6-21 8-20 10-19 11-17 10-13 9-10 15-15h2v-2l20-15 20-12 21-10 27-9 17-4zm25 80-20 2-17 4-16 6-17 9-16 12-12 11-9 11-10 15-8 16-6 18-4 20v32l4 20 6 18 8 16 8 12 9 11 14 14 14 10 14 8 14 6 17 5 19 3h24l19-3 17-5 25-12 16-12 10-9 7-7 10-13 9-16 5-11 5-16 3-14 1-8v-27l-4-22-6-18-11-21-10-14-14-15-17-13-16-9-14-6-18-5-13-2z" fill="#FEFEFE"/>
<path transform="translate(168,703)" d="m0 0 4 1 26 52 11 23 9 17 5 10 33 5 82 12 4 2 6-2 44-6 62-9 6-1 2-5 14-28 11-23 23-46h4l13 27 9 17 11 23 17 34 13 3 98 14 7 2v2l-8 7-15 15h-2l-1 3-8 7-25 25-8 7-13 13h-2l-2 4 2 14 17 99v3h-4v-2l-5-2-29-15-27-14-23-12-15-8-6 1-33 17-19 10-42 22-4 3h-3l1-11 17-98 1-7-30-30-8-7-26-26-4-3v-2l-4-2-10-10-5-1-13 12-18 18h-2l-1 3-8 7-22 22-6 5-12 12 1 14 15 88 3 16h-3v-2l-5-2-20-10-19-10-27-14-19-10-12-6-4 1-20 10-19 10-27 14-19 10-14 7-1 2h-2l1-10 11-65 6-34v-9l-29-29-8-7-29-29-8-7-9-8v-2l9-2 56-8 47-7 6-2 23-46 9-19 9-17z" fill="#FEFEFE"/>
<path transform="translate(852,704)" d="m0 0 4 1 12 25 38 76 5 2 97 14 16 2v3l-8 7-22 22h-2v2h-2v2l-8 7-21 21-8 7-12 12-1 3 17 100 2 10v4h-4v-2l-6-2-19-10-27-14-34-18-14-7-5 1-19 10-29 15-19 10-27 14-4 3h-3l1-10 11-65 6-34v-8l-23-23-2-1v-2l-4-2-18-18-8-7-26-26-3-1v-2l9-2 38-5 32-5 35-5 5-2 18-36 11-23 20-40z" fill="#FEFEFE"/>
</svg>
