<?xml version="1.0" encoding="UTF-8"?>
<svg version="1.1" viewBox="0 0 1024 1024" width="256" height="256" xmlns="http://www.w3.org/2000/svg">
<path transform="translate(474)" d="m0 0h81l4 2 34 7 26 8 24 10 21 10 20 12 16 11 13 10 15 13 9 8 7 8 9 9 9 11 15 20 12 19 14 27 10 24 8 24 6 25 4 26 1 12v49l-2 23-5 32-7 33-10 35-12 35-14 34-13 29-19 38-13 23-10 18-12 20-12 19-7 11v2l23 8 26 11 25 13 19 12 14 11 13 12 10 10 11 15 7 12 6 15 4 16 1 6v19l-4 21-6 16-8 15-10 14-4 5h-2l-2 4-8 8-11 9-11 8-18 11-23 12-24 10-33 11-40 10-35 6-37 5-16 2h-113l-4-2-44-6-28-5-26-6-28-8-23-8-23-10-20-10-18-11-13-10-14-12-7-7-11-14-8-13-7-14-5-17-2-12v-22l4-18 5-14 10-18 11-14 5-6h2l2-4 10-9 17-13 17-11 23-12 15-7 26-10 12-4-5-10-14-22-13-22-15-26-12-23-10-19-17-37-11-27-8-21-11-34-8-31-7-34-4-30-2-28v-27l3-31 4-22 6-24 10-29 11-24 12-22 12-18 9-12 13-16 11-12 13-13 8-7 15-12 20-14 15-9 23-12 23-10 25-8 24-6 23-4zm22 133-22 3-19 5-21 8-17 9-15 10-10 8-13 12-7 7-8 10-8 11-9 15-9 19-7 21-4 18-2 18v28l3 22 6 22 6 16 12 23 9 13 8 10 9 10 8 8h2v2l17 13 20 12 17 8 18 6 23 5 18 2h22l24-3 17-4 20-7 17-8 16-10 12-9 14-12 7-7 9-11 9-12 10-17 9-19 7-23 4-22 1-11v-22l-3-25-4-17-6-18-11-23-9-14-9-12-9-10-14-14-16-12-20-12-23-10-20-6-27-4zm-126 624-37 12-22 9-21 10-16 10-14 11-9 9-7 11-4 9-1 6v10l4 13 7 11 9 10 12 10 18 11 17 9 28 11 26 8 34 8 31 5 36 4 29 2h41l44-3 37-5 26-5 25-6 29-9 25-10 20-10 18-12 13-11 10-13 5-10 2-10-1-12-5-13-8-11-10-10-17-12-14-8-24-11-27-10-26-8-8 9-4 6-9 12-13 17-14 17-7 9-11 13-9 11-11 13-11 12-9 11-12 12-5 4-12 4h-13l-11-4-10-9-14-15-9-11-12-13-9-11-12-14-11-14-13-16-12-16-16-21-5-6z" fill="#FEFEFE"/>
<path transform="translate(499,200)" d="m0 0h25l18 3 19 7 15 8 11 8 12 11 9 10 8 12 8 17 6 20 2 14v20l-2 13-4 15-7 17-8 13-9 12-12 12-16 11-16 8-14 5-13 3-10 1h-20l-18-3-15-5-16-8-11-7-13-11-10-11-9-13-8-16-4-10-4-17-1-6v-25l4-21 6-16 6-12 9-13 9-10 9-9 14-10 15-8 18-6z" fill="#fff"/>
</svg>
