<?xml version="1.0" encoding="UTF-8"?>
<svg version="1.1" viewBox="0 0 1024 1024" width="256" height="256" xmlns="http://www.w3.org/2000/svg">
<path transform="translate(474)" d="m0 0h75v1l38 6 27 6 29 9 28 11 17 8 22 12 19 12 16 11 10 8 16 13 16 15 19 19 9 11 11 13 13 19 10 15 14 25 10 21 11 28 8 26 6 25 4 23 3 30 1 18v18l9 3 12 6 12 8 13 12 7 7 10 14 8 16 5 13 4 19 1 14v175l-2 20-4 16-6 16-8 14-9 12-16 16-15 10-16 8-15 5-15 3-8 1-4 22-6 21-6 15-13 25-12 16-8 10h-2l-2 4-9 9-11 9-12 9-19 11-17 8-22 7-18 4-16 2-36 1h-59l-1 21-2 11-5 5-2 3h-125l-1-2-12-5-12-9-8-10-7-15-2-10v-10l3-14 4-9 6-9 3-4h2v-2l13-9 13-5 7-1h111l7 3 5 6 1 2 1 29h73l24-1 18-3 21-6 18-8 18-11 16-13 14-14 11-15 10-17 8-20 5-17 3-14h-84l-6-3-5-6-2-9v-382l2-7 4-5 7-4h53l-2-33-4-27-7-28-10-28-12-25-10-18-11-16-10-13-12-14-21-21-11-9-20-15-20-12-23-12-25-10-23-7-22-5-22-3-12-1h-41l-27 3-27 6-20 6-25 10-17 8-19 11-12 8-12 9-11 9-12 11-18 18-11 14-8 10-11 17-11 19-11 24-9 25-8 32-4 30-2 27h52l6 2 5 5 3 5v392l-4 7-6 4-4 1h-116l-16-2-18-5-19-9-12-8-15-13-10-12-9-14-8-17-5-18-2-15v-192l3-17 7-21 9-17 10-13 9-10 14-11 13-8 15-7 2-41 4-32 7-33 8-27 7-19 9-21 8-16 10-19 11-17 13-19 18-22 11-12 7-7 5-6 8-7 13-12 17-13 15-11 17-11 25-14 25-12 32-12 28-8 29-6 28-4zm30 32-31 2-27 4-28 6-36 12-21 9-17 8-24 14-19 13-13 10-11 9-15 14-19 19v2h-2l-11 14-8 10-12 17-15 25-8 16-7 15-9 23-8 26-6 26-4 27-2 25v17h31l3-38 4-26 6-26 10-30 11-25 10-19 11-18 10-14 10-13 12-14 7-7v-2h2v-2h2v-2h2v-2l4-2 7-7 22-18 13-9 19-12 27-14 24-10 25-8 21-5 23-4 17-2 19-1h16l29 2 32 5 24 6 24 8 26 11 28 15 15 10 14 10 11 9 14 12 20 20 9 11 13 16 10 15 9 15 8 14 12 27 9 25 6 22 5 26 3 31 1 20h32l-1-27-3-29-6-31-8-28-9-24-11-24-11-21-12-19-13-18-14-17-11-12-21-21-11-9-15-12-27-18-16-9-21-11-27-11-24-8-24-6-29-5-22-2-20-1zm-321 396v350h65v-350zm592 0v350h65v-350zm99 0-1 41v308l3 1 19-5 16-8 9-6 10-9 9-11 6-11 5-12 3-14 1-12v-173l-1-14-4-15-5-12-8-13-9-10-8-7-13-8-14-6zm-725 0-17 4-15 6-11 7-12 11-7 8-8 14-5 12-3 11-1 8v188l2 13 6 17 9 15 11 12 8 7 13 8 16 6 12 3h3v-350zm328 515-7 2-9 8-3 7-1 9 3 10 7 8 9 4h90l1-47-1-1z" fill="#FEFEFE"/>
</svg>
